# xmcd CD database file
#
# Track frame offsets:
#	150
#	11998
#	25793
#	37353
#	49935
#	63835
#	76955
#	90158
#	101950
#	113873
#	126355
#	139393
#	152575
#	164780
#	176743
#	189703
#	202993
#	215468
#	227593
#	239970
#	252343
#	265618
#	277768
#	291295
#	302870
#
# Disc length: 4214 seconds
#
# Revision: 2
# Processed by: cddbd v1.4PL0 Copyright (c) Steve Scherf et al.
# Submitted via: CDex 1.40Release
#
DISCID=77107419
DTITLE=Bob Wills - The King Of Western Swing - 25 Hits 1935-1945
DYEAR=1998
DGENRE=Country
TTITLE0=New San Antonio Rose
TTITLE1=Osage Stomp
TTITLE2=Never No More Hard Times-Blues
TTITLE3=Steel Guitar Rag
TTITLE4=Sugar Blues
TTITLE5=Fan It
TTITLE6=Right Or Wrong
TTITLE7=Whoa Baby
TTITLE8=That's What I Like About The South
TTITLE9=Lone Star Rag
TTITLE10=Corrine, Corrina
TTITLE11=Bob Wills Special
TTITLE12=Time  Changes Everything
TTITLE13=Big Beaver
TTITLE14=Take Me Back To Tulsa
TTITLE15=Dusty Skies
TTITLE16=We Might As Well Forget It
TTITLE17=Home In San Antone
TTITLE18=You're From Texas
TTITLE19=Goodbye, Liza Jane
TTITLE20=Texas Playboy Rag
TTITLE21=Roly Poly
TTITLE22=Stay A Little Longer
TTITLE23=New Spanish Two-Step
TTITLE24=I'm Feeling Bad
EXTD=YEAR: 1998 ID3G: 2
EXTT0=
EXTT1=
EXTT2=
EXTT3=
EXTT4=
EXTT5=
EXTT6=
EXTT7=
EXTT8=
EXTT9=
EXTT10=
EXTT11=
EXTT12=
EXTT13=
EXTT14=
EXTT15=
EXTT16=
EXTT17=
EXTT18=
EXTT19=
EXTT20=
EXTT21=
EXTT22=
EXTT23=
EXTT24=
PLAYORDER=
